<svg width="12" height="15" viewBox="0 0 12 15" fill="none" xmlns="http://www.w3.org/2000/svg">
<path d="M2.97402 14.7108C2.68294 14.5139 2.42445 14.2715 2.20817 13.9925C1.97238 13.7033 1.75383 13.3991 1.55313 13.0842C1.08182 12.3848 0.712719 11.6198 0.457296 10.8131C0.149478 9.87486 -0.00012207 8.97664 -0.00012207 8.09778C-0.00012207 7.1171 0.209195 6.26135 0.616746 5.54302C0.920645 4.98019 1.36691 4.50972 1.90958 4.18006C2.43542 3.84914 3.03934 3.6679 3.65799 3.65537C3.87347 3.65537 4.10741 3.6866 4.35366 3.74906C4.5322 3.79903 4.74767 3.88024 5.0124 3.98018C5.351 4.11135 5.53569 4.19255 5.59725 4.21129C5.79426 4.28625 5.96048 4.31748 6.08976 4.31748C6.18826 4.31748 6.32986 4.28625 6.48685 4.23628C6.57611 4.20505 6.74541 4.14883 6.98551 4.04264C7.22315 3.95519 7.41153 3.88024 7.56113 3.82402C7.78892 3.75531 8.00932 3.69285 8.20755 3.66161C8.44765 3.62414 8.6859 3.61164 8.9143 3.63038C9.35141 3.66161 9.75157 3.75531 10.1086 3.89273C10.7366 4.14883 11.2433 4.5486 11.6213 5.11702C11.4612 5.21696 11.3134 5.33314 11.1749 5.46057C10.8751 5.72916 10.6209 6.04772 10.4177 6.40064C10.1537 6.88175 10.0171 7.42408 10.0212 7.97472C10.0305 8.6512 10.1998 9.24586 10.5384 9.76118C10.7849 10.1433 11.1064 10.4699 11.4827 10.7206C11.6736 10.8518 11.841 10.9424 11.9999 11.0017C11.926 11.2359 11.8447 11.4639 11.7505 11.6888C11.5369 12.1929 11.2827 12.6757 10.981 13.1317C10.715 13.5252 10.5057 13.8188 10.3469 14.0125C10.0994 14.3123 9.86054 14.5371 9.62044 14.6977C9.35572 14.8757 9.04482 14.97 8.72654 14.97C8.51106 14.9794 8.29559 14.9513 8.08997 14.8907C7.91143 14.8313 7.73536 14.7645 7.56298 14.6889C7.38235 14.6051 7.19619 14.5341 7.00583 14.4766C6.77191 14.4145 6.53101 14.3836 6.28923 14.3847C6.04297 14.3847 5.80287 14.416 5.57509 14.4753C5.38424 14.5303 5.19955 14.5977 5.01671 14.6783C4.75814 14.7876 4.58884 14.8595 4.49034 14.8907C4.29187 14.9503 4.08742 14.9869 3.88085 15C3.56072 15 3.26275 14.9063 2.96602 14.7189L2.97402 14.7108ZM7.1936 3.18002C6.77497 3.3924 6.37726 3.48234 5.97895 3.45236C5.91738 3.04885 5.97895 2.63409 6.14517 2.17998C6.29292 1.7927 6.48993 1.44291 6.76081 1.13059C7.044 0.80578 7.3826 0.537187 7.76429 0.34355C8.17062 0.131173 8.55847 0.0187391 8.92785 0C8.9771 0.424752 8.92785 0.843258 8.77394 1.293C8.63226 1.6925 8.42402 2.06435 8.1583 2.39235C7.8905 2.71716 7.55806 2.98576 7.1819 3.1794L7.1936 3.18002Z" fill="white"/>
</svg>
