<svg width="155" height="64" viewBox="0 0 155 64" fill="none" xmlns="http://www.w3.org/2000/svg">
<path fill-rule="evenodd" clip-rule="evenodd" d="M76.9972 0.105932C75.2123 0.724905 74.1081 1.96122 73.5989 3.91075C73.4974 4.29888 73.4144 4.8706 73.4144 5.18141C73.4144 5.81479 73.6369 6.83969 73.827 7.08169C73.914 7.19235 73.8855 7.31404 73.7331 7.48184C73.5212 7.7152 73.5063 7.71557 73.2685 7.49463C72.4834 6.76562 70.3772 7.25601 69.1842 8.44571C68.3622 9.26545 68.2216 9.46033 67.7848 10.3867C67.0049 12.0404 66.8594 12.8259 66.8645 15.3582C66.8675 16.9577 66.8266 17.5924 66.716 17.6625C66.632 17.7158 66.2804 17.7605 65.9347 17.7619C65.589 17.7634 65.1025 17.8209 64.8535 17.8898L64.4009 18.0153L64.3132 19.1111C64.2649 19.7138 64.1694 20.6863 64.1009 21.2722C64.0323 21.8581 63.9436 22.8269 63.9035 23.4251L63.8306 24.5129L64.317 24.6352C64.5845 24.7025 65.0296 24.7993 65.3062 24.8504L65.809 24.9434L65.3382 25.1443C64.9837 25.2956 64.8673 25.4186 64.8668 25.6425C64.8663 25.8801 64.8315 25.9112 64.694 25.7974C64.4033 25.5569 64.3528 26.445 64.5628 28.1023C64.6676 28.9294 64.7847 30.142 64.8232 30.7968L64.893 31.9873L64.5217 32.146C63.9728 32.3806 63.6706 33.5048 64.0106 34.0475C64.1208 34.2235 64.1247 34.3661 64.0252 34.5838C63.8795 34.9026 64.0415 36.269 64.2516 36.4927C64.3967 36.6472 64.3945 37.4377 64.2472 38.104C64.1834 38.393 64.073 39.0243 64.0018 39.5067C63.597 42.2528 63.5729 42.5519 63.7113 43.1C63.843 43.6215 63.7519 44.1921 63.4648 44.645C63.1458 45.1479 62.8548 45.7477 62.8548 45.902C62.8548 46.0034 62.8125 46.0866 62.7605 46.0871C62.7086 46.0876 62.5253 46.299 62.3531 46.5571C62.1809 46.8151 62.0112 47.0544 61.976 47.0888C61.9408 47.1233 61.6791 47.6026 61.3945 48.1541C60.8762 49.1579 60.5921 50.1278 60.5921 50.8928C60.5921 51.135 60.4316 51.5526 60.1973 51.9205C59.5336 52.9627 59.3346 53.5521 59.339 54.462C59.3414 54.9599 59.4109 55.3867 59.5111 55.5183C59.6976 55.7633 59.6517 56.1036 59.2027 57.804C59.057 58.3554 58.8913 59.0039 58.8343 59.2452C58.7773 59.4864 58.631 60.0222 58.509 60.4358C58.2109 61.4479 58.1851 63.4161 58.4663 63.6966C58.7207 63.9502 60.4901 64.0769 62.0124 63.9505L63.1062 63.8596V63.0187C63.1062 62.5562 63.0573 62.1242 62.9975 62.0587C62.9377 61.9933 62.8205 61.581 62.737 61.1426C62.581 60.3231 62.6961 59.0469 63.004 58.1799C63.2697 57.4323 63.7811 56.3628 63.8729 56.3628C64.2598 56.3628 65.1176 55.1851 65.1176 54.6542C65.1176 54.4795 65.3235 53.9901 66.0336 52.4777C66.7171 51.022 66.8775 50.4586 66.8775 49.5134C66.8775 48.4104 67.1986 47.5851 67.8405 47.0386C68.0884 46.8274 68.4323 46.3576 68.6048 45.9945C68.7773 45.6313 68.9639 45.3343 69.0196 45.3343C69.0753 45.3343 69.2863 45.1695 69.4883 44.9681C69.7883 44.6689 69.8843 44.4221 70.0117 43.6209C70.0976 43.0813 70.2141 42.527 70.2706 42.3892C70.3271 42.2513 70.5591 41.6592 70.7861 41.0733C71.2879 39.7776 71.5749 39.2399 72.0108 38.7792C72.1937 38.586 72.435 38.1939 72.5472 37.9079C72.6593 37.6218 72.8045 37.3701 72.8699 37.3483C72.9351 37.3266 73.0818 37.5041 73.196 37.7426C73.5815 38.5486 73.9072 38.8175 74.4986 38.8175C74.9607 38.8175 75.0651 38.8692 75.2572 39.1934C75.3798 39.4002 75.5176 39.5694 75.5633 39.5694C75.6092 39.5694 75.7171 39.7386 75.8029 39.9454C75.8888 40.1522 76.0019 40.3214 76.0543 40.3214C76.1068 40.3214 76.2199 40.4905 76.3058 40.6973C76.3916 40.9041 76.5079 41.0733 76.564 41.0733C76.62 41.0733 76.7017 41.1857 76.7455 41.3232C76.7892 41.4607 76.8952 41.6439 76.9808 41.7305C77.0666 41.8171 77.385 42.2545 77.6886 42.7025C77.9922 43.1505 78.3001 43.5759 78.3731 43.6477C78.6597 43.93 79.3357 44.111 79.8168 44.0343C80.2771 43.961 80.3253 43.9838 80.5804 44.3951C80.8238 44.7878 80.8431 44.9373 80.7629 45.8049C80.7002 46.4841 80.5932 46.8883 80.4067 47.1515C80.177 47.4752 80.1447 47.6755 80.174 48.5927C80.2187 49.9969 80.5085 52.2426 80.756 53.1043C80.865 53.4834 80.9548 53.9158 80.9555 54.0652C80.9564 54.2145 81.0236 54.3588 81.1051 54.3859C81.4556 54.5023 81.571 57.8585 81.2548 58.7439C81.1442 59.0541 80.9281 59.9189 80.7747 60.6659L80.496 62.0239L80.8165 62.2324C81.0709 62.3981 81.4004 62.435 82.4191 62.4125C83.4469 62.3898 83.8471 62.4356 84.4349 62.6432C85.0133 62.8475 85.58 62.9149 87.1168 62.9624C88.1885 62.9955 89.3764 62.9758 89.7567 62.9187L90.4481 62.8147L90.4866 62.2879C90.5077 61.9983 90.4656 61.6506 90.3929 61.5154C90.2597 61.2672 89.3552 60.7852 88.4453 60.4775C87.8489 60.276 86.8391 59.3126 86.0156 58.1595C85.4609 57.3829 85.3477 54.63 85.8352 53.7738C85.999 53.4862 86.0413 52.9837 86.0553 51.1618C86.0647 49.9211 86.1373 48.483 86.2165 47.9661C86.2957 47.4491 86.3966 46.1696 86.441 45.1226C86.5112 43.4594 86.4955 43.1931 86.3163 43.0144C86.2034 42.902 86.1104 42.6589 86.1094 42.4743C86.1067 41.94 85.9709 41.5746 85.7752 41.5746C85.6119 41.5746 84.9797 40.3717 84.9797 40.0611C84.9797 39.9907 84.8666 39.6999 84.7283 39.4145C84.59 39.1292 84.4769 38.8524 84.4769 38.7995C84.4769 38.7015 84.0056 37.6511 83.3044 36.1857C82.9613 35.4691 81.5518 33.2214 81.3394 33.0526C81.0169 32.7962 80.0632 31.4599 80.0114 31.1917C79.9761 31.0089 79.8985 30.6445 79.839 30.3818C79.6857 29.7052 79.9034 29.2515 80.3285 29.3623C80.5013 29.4074 80.869 29.4525 81.1456 29.4626C81.6444 29.4807 81.6517 29.4744 82.0504 28.6663C82.4072 27.9434 82.4704 27.6471 82.6126 26.0345C82.8213 23.6672 82.8153 22.0506 82.5961 21.6508C82.3843 21.2643 82.2434 21.1316 81.8056 20.9064C81.4274 20.7119 81.3863 20.459 81.6265 19.8055L81.7741 19.4041L82.2141 19.6123C82.4561 19.7267 82.6824 19.8554 82.7169 19.8983C82.7515 19.9411 83.3738 20.2661 84.0998 20.6204C85.2792 21.196 86.5981 21.6482 87.0979 21.6482C87.1967 21.6482 87.3535 21.7469 87.4463 21.8675C87.5607 22.0164 87.6459 22.0427 87.7115 21.9494C87.7647 21.8739 87.9582 21.7755 88.1414 21.7309C88.3249 21.6861 88.8057 21.3823 89.21 21.0558C90.8355 19.743 90.8455 19.7273 91.1562 17.9511C91.2406 17.4686 91.3553 17.0127 91.4113 16.9379C91.4672 16.8631 91.7437 16.726 92.0256 16.6332C92.4905 16.4802 92.53 16.4346 92.4508 16.1426C92.2704 15.4774 92.1266 14.7937 92.0063 14.0307L91.8822 13.2436L92.551 12.6341C92.9189 12.299 93.2954 11.8841 93.3877 11.712C93.6746 11.1776 94.001 11.121 96.792 11.121C98.2351 11.121 99.5052 11.0868 99.6146 11.0449C99.724 11.0031 99.8136 10.848 99.8136 10.7003C99.8137 10.4525 99.8893 10.4284 100.788 10.3891C102.225 10.3261 104.967 10.3479 106.507 10.4345L107.859 10.5105V10.0011V9.49178L106.885 9.4899C106.349 9.48877 105.829 9.43664 105.73 9.37398C105.612 9.29966 105.46 9.32209 105.293 9.43852C105.101 9.57286 104.593 9.6171 103.242 9.6171H101.448V9.12321C101.448 8.61051 101.242 8.33755 101.068 8.61878C100.988 8.74711 100.926 8.73934 100.768 8.58118C100.618 8.43154 100.568 8.12713 100.568 7.36103C100.568 6.45645 100.543 6.34503 100.348 6.38226C100.159 6.41822 100.123 6.59881 100.092 7.64476C100.063 8.61627 100.018 8.86516 99.8718 8.86516C99.7593 8.86516 99.6878 8.74335 99.6878 8.55185V8.23855H92.8994C86.195 8.23855 86.1111 8.23541 86.1111 7.9879C86.1111 7.82435 86.0273 7.73725 85.87 7.73725C85.3561 7.73725 85.2311 7.60128 85.2311 7.04196C85.2311 6.74319 85.1849 6.47023 85.1283 6.43539C85.0123 6.36396 84.791 6.94546 84.6746 7.62747C84.5998 8.06585 84.5747 8.08465 83.9495 8.16724C83.5934 8.21436 83.2128 8.30058 83.1038 8.35873C82.9948 8.41688 82.6429 8.50373 82.3218 8.55173L81.7382 8.63896L81.6528 7.96872C81.6058 7.60015 81.5399 7.20175 81.5065 7.08344C81.4625 6.92804 81.5434 6.84495 81.7984 6.78392C82.4144 6.63654 82.8326 6.36571 83.0291 5.98686C83.299 5.46652 83.2715 4.1703 82.9715 3.27636C82.8349 2.86931 82.72 2.39534 82.7161 2.22302C82.708 1.87086 82.4496 1.47108 82.2299 1.47108C82.0917 1.47108 81.5926 1.22745 81.4599 1.09511C81.3681 1.00362 80.8566 0.715129 80.1399 0.350438C79.6332 0.0926473 79.3043 0.0253492 78.4428 0.0029163C77.8551 -0.0123732 77.2046 0.0339964 76.9972 0.105932ZM89.1237 12.1153C89.2902 12.4254 89.2917 12.9627 89.1264 13.0646C89.0562 13.1079 88.8785 13.3784 88.7314 13.6658C88.4702 14.1761 87.4236 15.372 87.3417 15.2535C87.3191 15.2208 87.1198 14.8485 86.8989 14.426C86.515 13.692 86.5072 13.6491 86.7227 13.4548C86.8466 13.343 86.9889 13.2515 87.0391 13.2515C87.0891 13.2515 87.3237 13.1204 87.5603 12.9601C87.9012 12.7291 87.9585 12.6363 87.8365 12.5126C87.7145 12.389 87.7443 12.306 87.9793 12.1147C88.3677 11.7982 88.9537 11.7985 89.1237 12.1153ZM97.8495 29.979C96.2609 30.3665 94.8663 31.4323 94.2174 32.7547C93.6346 33.942 93.5331 35.2248 93.5304 41.439C93.5276 47.7382 93.6258 48.8144 94.3193 50.0966C94.6884 50.779 95.8545 51.8089 96.7296 52.2252L97.5238 52.603H106.602H115.68L116.462 52.231C117.731 51.6273 118.728 50.5571 119.186 49.3085C119.404 48.7144 119.424 48.2602 119.424 43.9888V39.3188H110.862C104.064 39.3188 102.314 39.351 102.363 39.4754C102.398 39.5616 102.526 39.8858 102.649 40.196C103.056 41.2244 104.008 42.3401 104.842 42.767C105.822 43.2687 106.398 43.3261 110.467 43.3276L114.396 43.3291L114.416 43.8617C114.427 44.1546 114.441 45.2261 114.447 46.2429L114.459 48.0913L106.507 48.0914H98.5564V41.1986V34.3058H108.99C117.316 34.3058 119.424 34.2739 119.424 34.1474C119.424 33.855 118.951 32.6939 118.661 32.2758C117.886 31.1579 116.608 30.2867 115.276 29.9683C114.305 29.7364 98.8049 29.7459 97.8495 29.979ZM128.035 29.9749C126.182 30.4368 124.765 31.7077 124.115 33.4912C123.904 34.0693 123.887 34.6754 123.887 41.3239C123.887 48.7329 123.883 48.6618 124.371 49.7206C124.45 49.8929 124.586 50.1085 124.673 50.1995C124.759 50.2906 124.83 50.4099 124.83 50.4645C124.83 50.7139 126.151 51.8641 126.805 52.1845L127.532 52.5404L136.172 52.5742L144.812 52.6081L145.663 52.2233C146.7 51.7544 147.798 50.6842 148.247 49.7051C148.82 48.4538 148.864 47.7605 148.816 40.76C148.775 34.6996 148.755 34.1949 148.528 33.5539C148.394 33.1748 148.24 32.8458 148.185 32.8229C148.131 32.7998 148.086 32.7057 148.086 32.6136C148.086 32.3742 146.885 31.0963 146.275 30.6877C145.992 30.4976 145.449 30.2329 145.069 30.0995C144.416 29.8704 143.941 29.8557 136.521 29.8375C130.6 29.823 128.509 29.8568 128.035 29.9749ZM3.95985 30.2847C3.5689 30.3811 2.62431 30.7938 2.51419 30.9163C2.47962 30.9547 2.23952 31.1435 1.98068 31.3359C1.34484 31.8084 0.579899 32.962 0.261602 33.9287C0.00967959 34.694 0 34.9729 0 41.5132C0 47.7357 0.0191079 48.3607 0.228163 48.9926C0.8547 50.8859 2.09797 52.0972 4.08556 52.7509C4.48155 52.8811 6.28561 52.9151 12.571 52.9107C19.8788 52.9055 20.6067 52.8863 21.1821 52.6831C23.1698 51.9816 24.5794 50.3014 24.9433 48.1997L25.0223 47.7441L21.5308 47.6494C19.6105 47.5973 15.3948 47.5866 12.1624 47.6256L6.28548 47.6966V41.5025V35.3084H15.258C20.1929 35.3084 24.3966 35.2753 24.5995 35.2348C24.9588 35.1632 24.9663 35.146 24.8928 34.5736C24.7332 33.3348 23.6832 31.7527 22.502 30.9718C21.3137 30.1862 21.9343 30.2347 12.7595 30.2121C8.12713 30.2009 4.16727 30.2334 3.95985 30.2847ZM32.8605 30.3952C32.0087 30.679 30.905 31.4241 30.4649 32.0127C30.2691 32.2745 30.0796 32.5168 30.0436 32.5513C29.8978 32.6913 29.42 33.7743 29.2973 34.2432C29.1161 34.9353 29.1269 39.22 29.3116 39.8682C29.3923 40.1519 29.5054 40.4377 29.563 40.5031C29.6205 40.5686 29.6675 40.7236 29.6675 40.8477C29.6675 40.9718 29.724 41.0733 29.7932 41.0733C29.8623 41.0733 29.9189 41.1589 29.9189 41.2637C29.9189 41.3683 30.2729 41.8053 30.7055 42.2349C31.417 42.9412 31.9309 43.2707 32.9733 43.6893C33.221 43.7887 35.6628 43.8304 41.2387 43.8304H49.1525V45.8982V47.9661H39.1486H29.1447L29.2321 48.3734C29.7025 50.5647 31.0435 52.0256 33.2502 52.7511C33.9952 52.9959 50.1491 52.9923 50.7867 52.7472C52.9864 51.9012 54.2622 50.5444 54.6691 48.6179C54.851 47.757 54.8513 43.7008 54.6696 43.0303C54.4174 42.1001 54.009 41.3985 53.2662 40.62C52.6028 39.9247 52.3157 39.7336 51.101 39.1779C50.7963 39.0385 49.186 38.9983 42.7099 38.9681L34.6959 38.9308V36.9943V35.0578H44.5012H54.3066L54.3047 34.6505C54.3037 34.4264 54.2168 34.0176 54.1116 33.7419C54.0065 33.4662 53.8876 33.1418 53.8474 33.0213C53.8073 32.9007 53.7244 32.8019 53.6633 32.8019C53.6023 32.8019 53.5523 32.721 53.5523 32.6221C53.5523 32.3118 52.2448 31.1226 51.4038 30.6682L50.5981 30.2328L42.0499 30.2072C34.2882 30.1839 33.4427 30.2014 32.8605 30.3952ZM150.223 30.6714C150.223 30.7404 150.364 30.7968 150.537 30.7968C150.846 30.7968 150.852 30.8134 150.852 31.7994C150.852 32.6069 150.888 32.8019 151.04 32.8019C151.182 32.8019 151.229 32.6506 151.229 32.191C151.229 31.855 151.264 31.4038 151.307 31.1884C151.374 30.8565 151.442 30.7968 151.755 30.7968C151.969 30.7968 152.091 30.7441 152.046 30.6714C152.003 30.6025 151.576 30.5461 151.096 30.5461C150.598 30.5461 150.223 30.5999 150.223 30.6714ZM152.407 30.8281C152.448 30.9832 152.483 31.5189 152.484 32.0187C152.485 32.7288 152.526 32.9273 152.668 32.9273C152.804 32.9273 152.861 32.7274 152.89 32.144C152.929 31.3636 152.943 31.3624 153.235 32.1127C153.288 32.2505 153.406 32.518 153.495 32.7071L153.659 33.0508L153.872 32.7012C153.989 32.5088 154.161 32.1286 154.254 31.8561C154.537 31.0257 154.623 31.0796 154.623 32.0876C154.623 33.0698 154.779 33.37 154.921 32.661C154.965 32.4455 155 31.8816 155 31.4077C155 30.5807 154.988 30.5461 154.697 30.5461C154.438 30.5461 154.343 30.6752 154.046 31.4289L153.699 32.3117L153.407 31.5956C153.246 31.2018 153.114 30.8045 153.114 30.7128C153.114 30.6098 152.965 30.5461 152.723 30.5461C152.378 30.5461 152.34 30.5798 152.407 30.8281ZM143.812 41.3239V48.4674H136.332H128.852V41.3239V34.1805H136.332H143.812V41.3239Z" fill="white"/>
</svg>
