<svg width="24" height="24" viewBox="0 0 24 24" fill="none" xmlns="http://www.w3.org/2000/svg">
<g clip-path="url(#clip0_1_511)">
<path d="M20.5 6C20.5 5.72386 20.2761 5.5 20 5.5H4C3.72386 5.5 3.5 5.72386 3.5 6V16C3.5 16.2761 3.72386 16.5 4 16.5H6.5V20C6.5 20.2022 6.62182 20.3845 6.80866 20.4619C6.9955 20.5393 7.21055 20.4966 7.35355 20.3536L11.2071 16.5H20C20.2761 16.5 20.5 16.2761 20.5 16V6Z" fill="white" stroke="white" stroke-linejoin="round"/>
<rect x="7" y="9" width="10" height="1" rx="0.5" fill="#25252A"/>
<rect x="7" y="12" width="6" height="1" rx="0.5" fill="#25252A"/>
<circle cx="21" cy="5" r="3.5" fill="#08B7FF" stroke="#26262B"/>
</g>
<defs>
<clipPath id="clip0_1_511">
<rect width="24" height="24" fill="white"/>
</clipPath>
</defs>
</svg>
