<svg width="16" height="16" viewBox="0 0 16 16" fill="none" xmlns="http://www.w3.org/2000/svg">
<path d="M7.62023 0.813676C7.78819 0.395442 8.38025 0.395441 8.54821 0.813676L10.2949 5.16325C10.3664 5.34135 10.5335 5.4628 10.725 5.47578L15.4015 5.79287C15.8511 5.82336 16.0341 6.38645 15.6882 6.67542L12.0913 9.68069C11.944 9.80375 11.8802 10.0003 11.927 10.1864L13.0705 14.7319C13.1805 15.169 12.7015 15.517 12.3198 15.2774L8.35007 12.7852C8.18753 12.6831 7.98091 12.6831 7.81837 12.7852L3.84867 15.2774C3.46696 15.517 2.98797 15.169 3.09792 14.7319L4.24145 10.1864C4.28828 10.0003 4.22443 9.80375 4.07715 9.68069L0.480207 6.67542C0.134342 6.38645 0.317301 5.82336 0.766966 5.79287L5.44341 5.47578C5.63489 5.4628 5.80205 5.34135 5.87357 5.16325L7.62023 0.813676Z" fill="#979CA6"/>
</svg>
