<svg width="28" height="28" viewBox="0 0 28 28" fill="none" xmlns="http://www.w3.org/2000/svg">
<path d="M13.9758 0C6.60848 0 0.573158 5.67087 0 12.877L7.51665 15.9795C8.15338 15.5442 8.92331 15.2907 9.75076 15.2907C9.82543 15.2907 9.89909 15.2927 9.97175 15.2967L13.3148 10.4593V10.3914C13.3148 7.48064 15.6872 5.11187 18.6034 5.11187C21.5197 5.11187 23.892 7.48064 23.892 10.3914C23.892 13.3022 21.5197 15.672 18.6034 15.672C18.5631 15.672 18.5237 15.671 18.4834 15.67L13.7154 19.065C13.7185 19.1278 13.7205 19.1907 13.7205 19.2526C13.7205 21.4387 11.9395 23.2165 9.75076 23.2165C7.82947 23.2165 6.222 21.847 5.85873 20.0342L0.482341 17.8152C2.14733 23.6917 7.556 28 13.9758 28C21.7215 28 28 21.7312 28 14C28 6.26781 21.7215 0 13.9758 0ZM8.7885 21.2427L7.06599 20.5319C7.37074 21.1668 7.8995 21.6979 8.60081 21.9893C10.1164 22.6202 11.8642 21.9025 12.4959 20.3882C12.8016 19.6555 12.8036 18.8469 12.5009 18.1123C12.1982 17.3776 11.626 16.8046 10.8924 16.4991C10.1629 16.1967 9.38184 16.2077 8.69566 16.4662L10.4757 17.2009C11.5937 17.6661 12.1225 18.9478 11.6563 20.0638C11.1911 21.1798 9.90656 21.7078 8.7885 21.2427ZM22.1275 10.3915C22.1275 8.45201 20.5463 6.87283 18.6038 6.87283C16.6603 6.87283 15.0791 8.45201 15.0791 10.3915C15.0791 12.3311 16.6603 13.9093 18.6038 13.9093C20.5463 13.9093 22.1275 12.3311 22.1275 10.3915ZM15.9621 10.3856C15.9621 8.92616 17.1477 7.74327 18.6089 7.74327C20.071 7.74327 21.2567 8.92616 21.2567 10.3856C21.2567 11.8449 20.071 13.0278 18.6089 13.0278C17.1477 13.0278 15.9621 11.8449 15.9621 10.3856Z" fill="white"/>
</svg>
